<?xml version="1.0" encoding="UTF-8"?>
<svg width="67px" height="40px" viewBox="0 0 67 40" version="1.1" xmlns="http://www.w3.org/2000/svg" xmlns:xlink="http://www.w3.org/1999/xlink">
    <title>logo 2</title>
    <g id="desktop" stroke="none" stroke-width="1" fill="none" fill-rule="evenodd">
        <g id="home" transform="translate(-190.000000, -19.000000)" fill-rule="nonzero">
            <g id="logo" transform="translate(190.739200, 19.164634)">
                <path d="M6.2272,34.9018814 C7.7056,34.9018814 8.95253333,34.5173481 9.968,33.7482814 C10.9834667,32.9792148 11.6704,31.9973481 12.0288,30.8026814 L12.0288,30.8026814 L8.6464,30.8026814 C8.1536,31.8032148 7.3248,32.3034814 6.16,32.3034814 C5.3536,32.3034814 4.67413333,32.0496148 4.1216,31.5418814 C3.56906667,31.0341481 3.25546667,30.3322814 3.1808,29.4362814 L3.1808,29.4362814 L12.2528,29.4362814 C12.3125333,29.0778814 12.3424,28.6746814 12.3424,28.2266814 C12.3424,27.0170814 12.0848,25.9456148 11.5696,25.0122814 C11.0544,24.0789481 10.3301333,23.3584148 9.3968,22.8506814 C8.46346667,22.3429481 7.40693333,22.0890814 6.2272,22.0890814 C5.00266667,22.0890814 3.92,22.3504148 2.9792,22.8730814 C2.0384,23.3957481 1.30666667,24.1424148 0.784,25.1130814 C0.261333333,26.0837481 0,27.2112148 0,28.4954814 C0,29.7648148 0.265066667,30.8848148 0.7952,31.8554814 C1.32533333,32.8261481 2.06453333,33.5765481 3.0128,34.1066814 C3.96106667,34.6368148 5.03253333,34.9018814 6.2272,34.9018814 Z M9.0944,27.3306814 L3.2032,27.3306814 C3.32266667,26.4944148 3.64746667,25.8410814 4.1776,25.3706814 C4.70773333,24.9002814 5.36106667,24.6650814 6.1376,24.6650814 C6.95893333,24.6650814 7.65333333,24.9077481 8.2208,25.3930814 C8.78826667,25.8784148 9.07946667,26.5242814 9.0944,27.3306814 L9.0944,27.3306814 Z M17.7632,34.7002814 L17.7632,18.1242814 L14.6272,18.1242814 L14.6272,34.7002814 L17.7632,34.7002814 Z M26.2752,34.9018814 C27.7536,34.9018814 29.0005333,34.5173481 30.016,33.7482814 C31.0314667,32.9792148 31.7184,31.9973481 32.0768,30.8026814 L32.0768,30.8026814 L28.6944,30.8026814 C28.2016,31.8032148 27.3728,32.3034814 26.208,32.3034814 C25.4016,32.3034814 24.7221333,32.0496148 24.1696,31.5418814 C23.6170667,31.0341481 23.3034667,30.3322814 23.2288,29.4362814 L23.2288,29.4362814 L32.3008,29.4362814 C32.3605333,29.0778814 32.3904,28.6746814 32.3904,28.2266814 C32.3904,27.0170814 32.1328,25.9456148 31.6176,25.0122814 C31.1024,24.0789481 30.3781333,23.3584148 29.4448,22.8506814 C28.5114667,22.3429481 27.4549333,22.0890814 26.2752,22.0890814 C25.0506667,22.0890814 23.968,22.3504148 23.0272,22.8730814 C22.0864,23.3957481 21.3546667,24.1424148 20.832,25.1130814 C20.3093333,26.0837481 20.048,27.2112148 20.048,28.4954814 C20.048,29.7648148 20.3130667,30.8848148 20.8432,31.8554814 C21.3733333,32.8261481 22.1125333,33.5765481 23.0608,34.1066814 C24.0090667,34.6368148 25.0805333,34.9018814 26.2752,34.9018814 Z M29.1424,27.3306814 L23.2512,27.3306814 C23.3706667,26.4944148 23.6954667,25.8410814 24.2256,25.3706814 C24.7557333,24.9002814 25.4090667,24.6650814 26.1856,24.6650814 C27.0069333,24.6650814 27.7013333,24.9077481 28.2688,25.3930814 C28.8362667,25.8784148 29.1274667,26.5242814 29.1424,27.3306814 L29.1424,27.3306814 Z M41.7312,34.7002814 L46.3232,22.2906814 L42.9856,22.2906814 L39.8496,31.8106814 L36.7136,22.2906814 L33.3536,22.2906814 L37.9232,34.7002814 L41.7312,34.7002814 Z" id="elev" fill="#FFFFFF"></path>
                <path d="M56.294065,29.448 C57.694065,29.448 58.954065,29.196 60.074065,28.692 C61.194065,28.188 62.076065,27.4646667 62.720065,26.522 C63.364065,25.5793333 63.686065,24.4733333 63.686065,23.204 C63.686065,22.028 63.3967317,21.0106667 62.818065,20.152 C62.2393984,19.2933333 61.4367317,18.64 60.410065,18.192 C61.250065,17.7626667 61.922065,17.1606667 62.426065,16.386 C62.930065,15.6113333 63.182065,14.7106667 63.182065,13.684 C63.182065,12.676 62.9253984,11.7566667 62.412065,10.926 C61.8987317,10.0953333 61.124065,9.43266667 60.088065,8.938 C59.052065,8.44333333 57.7873984,8.196 56.294065,8.196 C54.8007317,8.196 53.536065,8.44333333 52.500065,8.938 C51.464065,9.43266667 50.6893984,10.0953333 50.176065,10.926 C49.6627317,11.7566667 49.406065,12.676 49.406065,13.684 C49.406065,15.7186667 50.3393984,17.2213333 52.206065,18.192 C51.1793984,18.6213333 50.3767317,19.27 49.798065,20.138 C49.2193984,21.006 48.930065,22.028 48.930065,23.204 C48.930065,24.4733333 49.252065,25.5793333 49.896065,26.522 C50.540065,27.4646667 51.4173984,28.188 52.528065,28.692 C53.6387317,29.196 54.894065,29.448 56.294065,29.448 Z M56.294065,17.044 C55.398065,17.044 54.6653984,16.792 54.096065,16.288 C53.5267317,15.784 53.242065,15.112 53.242065,14.272 C53.242065,13.3386667 53.5173984,12.62 54.068065,12.116 C54.6187317,11.612 55.3607317,11.36 56.294065,11.36 C57.246065,11.36 57.9973984,11.612 58.548065,12.116 C59.0987317,12.62 59.374065,13.3293333 59.374065,14.244 C59.374065,15.084 59.0847317,15.7606667 58.506065,16.274 C57.9273984,16.7873333 57.190065,17.044 56.294065,17.044 Z M56.294065,26.2 C55.1927317,26.2 54.320065,25.906 53.676065,25.318 C53.032065,24.73 52.710065,23.9693333 52.710065,23.036 C52.710065,22.028 53.0413984,21.2533333 53.704065,20.712 C54.3667317,20.1706667 55.230065,19.9 56.294065,19.9 C57.358065,19.9 58.2167317,20.1753333 58.870065,20.726 C59.5233984,21.2766667 59.850065,22.0466667 59.850065,23.036 C59.850065,23.9506667 59.5327317,24.7066667 58.898065,25.304 C58.2633984,25.9013333 57.3953984,26.2 56.294065,26.2 Z" id="8" fill="#256BFE"></path>
            </g>
        </g>
    </g>
</svg>